<svg xmlns="http://www.w3.org/2000/svg" viewBox="0 0 24 12.52"><g id="a5fb74f3-5a69-48f0-a993-4a3572c01630" data-name="Layer 2"><g id="b5b00002-010a-487e-8529-4dd6ce48acb5" data-name="A2A"><g id="b17aa99f-c691-4a9c-adaf-7ecacf2b8562" data-name="A2A"><path d="M24,6.26a6.31,6.31,0,0,1-6.26,6.26,5.44,5.44,0,0,1-4.49-1.9l.27-.23,4.06-4.06L13.19,1.94A6.54,6.54,0,0,1,17.74,0,6.26,6.26,0,0,1,24,6.26Z"/><path d="M10.48,10.39l.27.23a5.43,5.43,0,0,1-4.49,1.9A6.26,6.26,0,0,1,6.26,0a6.54,6.54,0,0,1,4.55,1.94L6.42,6.33Z"/><polygon points="14.51 7.5 14.51 6.58 9.49 6.58 9.49 7.5 8.5 6.24 9.49 4.99 9.49 5.85 14.51 5.85 14.51 4.99 15.5 6.24 14.51 7.5"/></g></g></g></svg>