<svg xmlns="http://www.w3.org/2000/svg" viewBox="0 0 23.93 23.83"><g id="eaf167b7-053a-43cb-8cb5-5658d62be563" data-name="Layer 2"><g id="b29e008a-589a-4ac1-af33-b2173f6a7941" data-name="ACS"><g id="ba8f3315-e17e-4845-abfc-915264dfa90e" data-name="ACS"><path d="M12.41,13V23.83A11.74,11.74,0,0,0,20,20.63Z"/><path d="M11.41,23.83V13L3.85,20.65A11.74,11.74,0,0,0,11.41,23.83Z"/><path d="M3.2,3.69A12.05,12.05,0,0,0,0,11.32H10.76Z"/><path d="M0,12v-.23s0,.08,0,.12S0,11.92,0,12Z"/><path d="M0,12.32a12,12,0,0,0,3.13,7.62l7.56-7.62Z"/><path d="M23.4,12.88a11.34,11.34,0,0,1-2.69,6.36l-6.42-6.36H23.4m.53-.5H13.08L20.73,20a11.79,11.79,0,0,0,3.2-7.59Z"/><path d="M20.73,4.55a11.36,11.36,0,0,1,2.67,6.34H14.34l6.39-6.34m0-.72-7.63,7.56H23.93a11.74,11.74,0,0,0-3.18-7.56Z"/><path d="M10.92.54v9L4.53,3.2A11.51,11.51,0,0,1,10.92.54m.5-.54A12,12,0,0,0,3.79,3.18l7.63,7.55V0Z"/><path d="M12.92.53a11.62,11.62,0,0,1,6.39,2.62L12.92,9.49v-9M12.42,0V10.68L20,3.13A12,12,0,0,0,12.42,0Z"/></g></g></g></svg>